<?xml version="1.0" standalone="no"?>
<!DOCTYPE svg PUBLIC "-//W3C//DTD SVG 20010904//EN"
 "http://www.w3.org/TR/2001/REC-SVG-20010904/DTD/svg10.dtd">
<svg version="1.0" xmlns="http://www.w3.org/2000/svg"
 width="600.000000pt" height="600.000000pt" viewBox="0 0 600.000000 600.000000"
 preserveAspectRatio="xMidYMid meet">

<g transform="translate(0.000000,600.000000) scale(0.100000,-0.100000)"
fill="#000000" stroke="none">
<path d="M3870 5934 c-773 -215 -1333 -594 -1703 -1154 -146 -221 -286 -558
-337 -813 -12 -60 -21 -110 -19 -111 7 -6 221 42 229 51 4 4 26 53 50 108 171
407 440 742 780 970 103 69 332 184 436 219 67 22 76 23 71 8 -38 -115 -50
-180 -54 -282 -8 -194 34 -373 144 -602 51 -107 58 -117 79 -112 13 3 125 27
249 53 124 27 228 51 231 54 3 3 -18 67 -46 143 -125 337 -165 523 -165 779 0
250 31 385 140 613 30 61 51 112 47 111 -4 0 -63 -16 -132 -35z"/>
<path d="M1497 3882 c-44 -57 -77 -105 -75 -108 3 -3 162 26 163 30 0 1 -2 42
-5 91 l-5 90 -78 -103z"/>
</g>
</svg>
